<?xml version="1.0" encoding="utf-8"?>
<svg viewBox="0 0 200 200" width="200" height="200" xmlns="http://www.w3.org/2000/svg">
  <g transform="matrix(1, 0, 0, 1, 2.007915, 1.269511)">
    <ellipse style="stroke: rgb(0, 0, 0); stroke-width: 0px; fill: rgba(0, 102, 255, 0.6);" cx="63.869" cy="119.924" rx="50" ry="50"/>
    <ellipse style="stroke: rgb(0, 0, 0); stroke-width: 0px; fill: rgba(0, 102, 255, 0.6);" cx="132.029" cy="119.924" rx="50" ry="50"/>
    <ellipse style="stroke: rgb(0, 0, 0); stroke-width: 0px; fill: rgba(0, 102, 255, 0.6);" cx="97.774" cy="64.889" rx="50" ry="50"/>
    <ellipse style="stroke: rgb(0, 0, 0); stroke-width: 0px; fill: rgba(0, 102, 255, 0.6);" cx="203.237" cy="150" rx="50" ry="50" transform="matrix(-0.999981, 0.006173, -0.006173, -0.999981, 336.49448, 227.287463)"/>
    <ellipse style="stroke: rgb(0, 0, 0); stroke-width: 0px; fill: rgba(0, 102, 255, 0.6);" cx="271.397" cy="150" rx="50" ry="50" transform="matrix(-0.999981, 0.006173, -0.006173, -0.999981, 336.494482, 227.287463)"/>
    <ellipse style="stroke: rgb(0, 0, 0); stroke-width: 0px; fill: rgba(0, 102, 255, 0.6);" cx="237.142" cy="94.965" rx="50" ry="50" transform="matrix(-0.999981, 0.006173, -0.006173, -0.999981, 336.494481, 227.287462)"/>
  </g>
  <path d="M 138.283 149.671 L 106.103 117.218 L 114.328 108.885 L 146.508 141.484 C 147.662 142.654 148.239 144.018 148.239 145.577 C 148.239 147.137 147.662 148.501 146.508 149.671 C 145.353 150.84 143.982 151.425 142.395 151.425 C 140.808 151.425 139.437 150.84 138.283 149.671 Z M 54.441 149.671 C 53.288 148.501 52.709 147.112 52.709 145.504 C 52.709 143.896 53.288 142.508 54.441 141.338 L 92.105 103.184 L 76.664 87.543 L 76.374 87.835 C 75.509 88.712 74.5 89.151 73.346 89.151 C 72.191 89.151 71.181 88.712 70.316 87.835 L 66.996 84.473 L 66.996 96.899 L 65.843 98.068 C 65.168 98.75 64.399 99.091 63.532 99.091 C 62.667 99.091 61.896 98.75 61.225 98.068 L 48.236 84.912 C 47.563 84.229 47.226 83.449 47.226 82.572 C 47.226 81.695 47.563 80.915 48.236 80.234 L 49.39 79.064 L 61.801 79.064 L 57.906 75.117 C 57.039 74.24 56.607 73.217 56.607 72.048 C 56.607 70.878 57.039 69.855 57.906 68.978 L 73.778 52.898 C 75.414 51.241 77.194 50.12 79.117 49.536 C 81.042 48.951 83.158 48.658 85.466 48.658 C 87.776 48.658 89.893 49.072 91.816 49.901 C 93.741 50.729 95.52 51.972 97.155 53.628 L 81.715 69.27 L 85.611 73.217 C 86.477 74.094 86.911 75.117 86.911 76.287 C 86.911 77.456 86.477 78.479 85.611 79.357 L 85.179 79.795 L 100.186 94.998 L 117.792 77.164 C 117.022 75.897 116.421 74.435 115.988 72.778 C 115.556 71.122 115.338 69.367 115.338 67.515 C 115.338 62.351 117.19 57.892 120.894 54.14 C 124.598 50.388 128.999 48.512 134.097 48.512 C 135.541 48.512 136.766 48.658 137.777 48.951 C 138.787 49.243 139.63 49.632 140.303 50.12 L 128.038 62.545 L 138.859 73.509 L 151.126 61.084 C 151.606 61.863 152.016 62.814 152.352 63.934 C 152.689 65.055 152.857 66.346 152.857 67.808 C 152.857 72.973 151.007 77.432 147.302 81.184 C 143.598 84.936 139.197 86.812 134.097 86.812 C 132.365 86.812 130.876 86.69 129.626 86.447 C 128.374 86.203 127.219 85.837 126.161 85.35 L 62.523 149.817 C 61.369 150.987 60.021 151.546 58.482 151.497 C 56.943 151.449 55.597 150.84 54.441 149.671 Z" style="fill: rgb(255, 255, 255);"/>
</svg>