<?xml version="1.0" encoding="utf-8"?>
<svg viewBox="0 0 200 200" width="200" height="200" xmlns="http://www.w3.org/2000/svg">
  <g transform="matrix(1, 0, 0, 1, 2.007915, 1.269511)">
    <ellipse style="stroke: rgb(0, 0, 0); stroke-width: 0px; fill: rgba(252, 134, 31, 0.63);" cx="203.237" cy="150" rx="50" ry="50" transform="matrix(-0.999981, 0.006173, -0.006173, -0.999981, 336.49448, 227.287463)"/>
    <ellipse style="stroke: rgb(0, 0, 0); stroke-width: 0px; fill: rgba(108, 31, 252, 0.47);" cx="271.397" cy="150" rx="50" ry="50" transform="matrix(-0.999981, 0.006173, -0.006173, -0.999981, 336.494482, 227.287463)"/>
    <ellipse style="stroke: rgb(0, 0, 0); stroke-width: 0px; fill: rgba(0, 167, 28, 0.55);" cx="237.142" cy="94.965" rx="50" ry="50" transform="matrix(-0.999981, 0.006173, -0.006173, -0.999981, 336.494481, 227.287462)"/>
    <ellipse style="stroke: rgb(0, 0, 0); stroke-width: 0px; fill: rgba(31, 86, 252, 0.63);" cx="63.869" cy="119.924" rx="50" ry="50"/>
    <ellipse style="stroke: rgb(0, 0, 0); stroke-width: 0px; fill: rgba(252, 215, 31, 0.52);" cx="132.029" cy="119.924" rx="50" ry="50"/>
    <ellipse style="stroke: rgb(0, 0, 0); stroke-width: 0px; fill: rgba(255, 0, 0, 0.57);" cx="97.774" cy="64.889" rx="50" ry="50"/>
  </g>
  <path d="M 61.325 152.697 C 59.36 152.697 57.715 152.06 56.389 150.785 C 55.063 149.511 54.399 147.929 54.399 146.04 C 54.399 144.153 55.063 142.572 56.389 141.297 C 57.715 140.022 59.36 139.385 61.325 139.385 L 73.113 139.385 L 57.494 88.119 C 54.35 86.703 51.895 84.791 50.126 82.383 C 48.358 79.975 47.474 76.789 47.474 72.824 C 47.474 68.387 49.168 64.54 52.557 61.283 C 55.946 58.024 59.949 56.396 64.566 56.396 C 68.888 56.396 72.474 57.505 75.323 59.724 C 78.172 61.942 80.087 64.894 81.069 68.576 L 102.582 68.576 L 102.582 60.22 C 102.582 59.087 103.023 58.095 103.908 57.246 C 104.792 56.396 105.823 55.972 107.003 55.972 C 108.083 55.972 108.991 56.373 109.728 57.175 C 110.465 57.978 110.833 58.898 110.833 59.938 L 121.884 49.74 C 122.67 48.985 123.677 48.489 124.905 48.254 C 126.132 48.017 127.385 48.183 128.662 48.748 L 151.942 59.511 C 152.827 59.984 153.441 60.645 153.784 61.495 C 154.129 62.344 154.054 63.241 153.564 64.185 C 153.073 65.13 152.36 65.696 151.428 65.885 C 150.494 66.074 149.586 65.932 148.701 65.459 L 125.862 54.838 L 111.422 68.858 L 111.422 76.224 L 125.862 90.81 L 148.701 80.047 C 149.684 79.575 150.616 79.456 151.501 79.693 C 152.385 79.929 153.073 80.519 153.564 81.463 C 154.054 82.406 154.129 83.351 153.784 84.295 C 153.441 85.239 152.778 85.947 151.796 86.42 L 129.251 96.617 C 127.876 97.276 126.55 97.583 125.273 97.537 C 123.996 97.489 122.867 96.994 121.884 96.05 L 110.833 85.853 C 110.833 87.175 110.465 88.166 109.728 88.827 C 108.991 89.488 108.083 89.818 107.003 89.818 C 105.823 89.818 104.792 89.393 103.908 88.544 C 103.023 87.694 102.582 86.703 102.582 85.569 L 102.582 77.073 L 80.775 77.073 C 80.775 78.205 80.456 79.362 79.817 80.542 C 79.179 81.722 78.417 82.69 77.532 83.446 L 107.739 139.385 L 124.095 139.385 C 126.059 139.385 127.704 140.022 129.03 141.297 C 130.356 142.572 131.02 144.153 131.02 146.04 C 131.02 147.929 130.356 149.511 129.03 150.785 C 127.704 152.06 126.059 152.697 124.095 152.697 L 61.325 152.697 Z M 64.566 80.755 C 66.924 80.755 68.888 80 70.461 78.489 C 72.031 76.979 72.817 75.09 72.817 72.824 C 72.817 70.559 72.031 68.67 70.461 67.16 C 68.888 65.649 66.924 64.894 64.566 64.894 C 62.209 64.894 60.245 65.649 58.673 67.16 C 57.101 68.67 56.315 70.559 56.315 72.824 C 56.315 75.09 57.101 76.979 58.673 78.489 C 60.245 80 62.209 80.755 64.566 80.755 Z M 82.838 139.385 L 97.867 139.385 L 70.018 87.41 C 69.724 87.6 69.233 87.788 68.545 87.977 C 67.858 88.166 67.316 88.308 66.924 88.402 L 82.838 139.385 Z M 97.867 139.385 Z" style="fill: rgb(255, 255, 255);"/>
</svg>