<?xml version="1.0" encoding="utf-8"?>
<svg viewBox="0 0 200 200" width="200" height="200" xmlns="http://www.w3.org/2000/svg">
  <g transform="matrix(1, 0, 0, 1, 2.007915, 1.269511)">
    <ellipse style="stroke: rgb(0, 0, 0); stroke-width: 0px; fill: rgba(252, 134, 31, 0.63);" cx="63.869" cy="119.924" rx="50" ry="50"/>
    <ellipse style="stroke: rgb(0, 0, 0); stroke-width: 0px; fill: rgba(252, 134, 31, 0.63);" cx="132.029" cy="119.924" rx="50" ry="50"/>
    <ellipse style="stroke: rgb(0, 0, 0); stroke-width: 0px; fill: rgba(252, 134, 31, 0.63);" cx="97.774" cy="64.889" rx="50" ry="50"/>
    <ellipse style="stroke: rgb(0, 0, 0); stroke-width: 0px; fill: rgba(252, 134, 31, 0.63);" cx="203.237" cy="150" rx="50" ry="50" transform="matrix(-0.999981, 0.006173, -0.006173, -0.999981, 336.49448, 227.287463)"/>
    <ellipse style="stroke: rgb(0, 0, 0); stroke-width: 0px; fill: rgba(252, 134, 31, 0.63);" cx="271.397" cy="150" rx="50" ry="50" transform="matrix(-0.999981, 0.006173, -0.006173, -0.999981, 336.494482, 227.287463)"/>
    <ellipse style="stroke: rgb(0, 0, 0); stroke-width: 0px; fill: rgba(252, 134, 31, 0.63);" cx="237.142" cy="94.965" rx="50" ry="50" transform="matrix(-0.999981, 0.006173, -0.006173, -0.999981, 336.494481, 227.287462)"/>
  </g>
  <path d="M 94.959 46 C 100.675 61.535 97.702 69.997 91.301 76.72 C 84.327 84.14 73.467 89.704 65.807 100.601 C 55.633 115.092 53.918 146.973 90.614 155.319 C 75.181 147.088 71.866 123.208 88.557 108.253 C 84.213 122.744 92.215 132.018 102.161 128.656 C 111.878 125.293 118.28 132.366 118.051 140.48 C 117.937 146.045 115.765 150.797 110.164 153.464 C 134.056 149.175 143.659 129.12 143.659 113.817 C 143.659 93.646 125.939 90.863 134.857 73.939 C 124.225 74.866 120.566 81.937 121.595 93.53 C 122.281 101.181 114.394 106.398 108.563 102.92 C 103.875 100.021 103.99 94.457 108.105 90.284 C 116.908 81.474 120.337 61.187 94.959 46 Z" style="fill: rgb(255, 255, 255);"/>
</svg>